<?xml version="1.0" standalone="no"?>
<!DOCTYPE svg PUBLIC "-//W3C//DTD SVG 20010904//EN"
 "http://www.w3.org/TR/2001/REC-SVG-20010904/DTD/svg10.dtd">
<svg version="1.0" xmlns="http://www.w3.org/2000/svg"
 width="3333.000000pt" height="3333.000000pt" viewBox="0 0 3333.000000 3333.000000"
 preserveAspectRatio="xMidYMid meet">
<metadata>
Created by potrace 1.16, written by Peter Selinger 2001-2019
</metadata>
<g transform="translate(0.000000,3333.000000) scale(0.100000,-0.100000)"
fill="#000000" stroke="none">
<path d="M13557 31329 c-234 -25 -450 -131 -612 -301 -170 -177 -519 -753
-719 -1183 -791 -1710 -750 -3507 121 -5249 137 -274 270 -505 439 -764 l94
-143 -40 -137 c-71 -246 -120 -489 -156 -777 -15 -112 -18 -289 -21 -1287 l-4
-1158 4006 0 4006 0 -4 1173 c-3 1245 -3 1226 -53 1522 -24 146 -82 394 -123
534 l-38 130 73 110 c600 898 998 1942 1108 2911 53 467 46 1009 -20 1460 -75
513 -232 1054 -446 1539 -221 501 -611 1156 -798 1340 -162 160 -384 261 -615
280 -505 41 -946 -276 -1068 -769 -16 -67 -21 -116 -21 -230 0 -244 46 -381
211 -629 274 -411 466 -795 594 -1183 77 -234 141 -531 171 -793 19 -167 16
-590 -6 -765 -56 -462 -186 -909 -387 -1328 l-58 -124 -58 42 c-611 445 -1317
704 -2098 770 -187 16 -600 14 -790 -5 -734 -70 -1398 -312 -1980 -720 -66
-46 -123 -81 -128 -76 -14 14 -154 337 -204 471 -122 325 -203 666 -239 1002
-19 179 -22 539 -5 703 71 685 311 1321 744 1970 115 171 176 293 208 415 33
123 34 365 1 494 -105 414 -451 711 -881 757 -96 10 -95 10 -204 -2z"/>
<path d="M6565 26329 c-157 -14 -341 -80 -472 -170 -85 -59 -204 -181 -264
-272 -67 -103 -110 -201 -142 -324 l-22 -88 0 -2150 0 -2150 26 -95 c32 -115
81 -223 140 -310 24 -36 764 -929 1645 -1985 880 -1056 1603 -1925 1607 -1932
4 -6 -2 -45 -13 -85 -55 -203 -135 -650 -195 -1103 -19 -143 -37 -275 -40
-292 l-6 -33 -2067 0 c-1272 0 -2110 -4 -2178 -10 -377 -33 -698 -264 -841
-604 -24 -56 -191 -707 -555 -2161 l-521 -2080 -1 -150 c0 -122 4 -166 22
-238 105 -422 450 -722 879 -766 230 -24 458 32 650 159 160 105 270 231 353
402 44 91 73 202 466 1768 l419 1670 1608 0 1608 0 -7 -242 c-20 -739 79
-1712 258 -2533 23 -104 42 -202 42 -217 1 -24 -148 -138 -1484 -1141 -1097
-822 -1502 -1132 -1549 -1182 -118 -127 -199 -277 -243 -451 l-23 -89 0 -2145
0 -2145 23 -89 c91 -357 345 -624 699 -733 82 -25 101 -27 273 -27 201 -1 234
4 390 65 157 60 331 198 435 343 57 81 127 227 157 331 l23 80 5 1837 5 1837
988 741 c544 408 990 740 992 738 2 -2 41 -82 88 -178 607 -1264 1482 -2381
2503 -3197 902 -720 1937 -1220 2997 -1448 121 -26 392 -75 414 -75 11 0 13
1421 13 7465 l0 7465 -2317 0 c-1432 0 -2371 -4 -2455 -10 -76 -6 -191 -21
-255 -35 -64 -13 -117 -24 -118 -22 -1 1 -644 772 -1428 1713 l-1427 1712 0
1868 c-1 1999 1 1935 -50 2084 -124 367 -465 645 -829 675 -36 3 -82 7 -101 9
-19 2 -75 -1 -125 -5z"/>
<path d="M26565 26329 c-157 -14 -341 -80 -472 -170 -82 -57 -202 -180 -259
-265 -68 -102 -109 -193 -143 -314 l-26 -95 -3 -1896 -2 -1896 -1426 -1709
c-903 -1082 -1432 -1709 -1442 -1708 -10 1 -64 11 -121 23 -57 12 -161 26
-230 31 -71 5 -1133 10 -2453 10 l-2328 0 0 -7466 0 -7467 53 7 c101 13 414
78 587 121 509 128 933 285 1425 530 315 156 522 276 800 460 1098 727 2025
1739 2746 2997 92 161 384 728 401 778 3 11 289 -199 996 -729 l992 -743 2
-1827 3 -1826 26 -95 c98 -352 348 -610 696 -717 82 -25 101 -27 273 -27 201
-1 234 4 390 65 157 60 331 198 435 343 60 84 128 230 157 336 l23 85 0 2165
0 2165 -23 85 c-46 169 -141 335 -257 453 -31 32 -723 558 -1538 1169 -815
611 -1483 1112 -1485 1113 -2 2 17 94 42 206 183 827 276 1715 264 2511 l-4
298 1607 0 1608 0 10 -37 c6 -21 192 -767 415 -1659 286 -1145 415 -1644 440
-1702 167 -396 589 -645 1019 -601 362 37 657 244 812 570 73 156 90 236 89
429 l0 165 -523 2085 c-476 1901 -526 2093 -566 2179 -83 173 -198 306 -359
412 -143 95 -286 143 -471 159 -67 6 -914 10 -2177 10 -1355 0 -2068 3 -2068
10 0 5 -16 128 -35 272 -65 485 -156 996 -210 1174 -12 40 -12 51 -1 64 153
178 3222 3869 3245 3903 47 69 116 219 143 312 l22 80 4 2125 c2 1522 0 2147
-8 2203 -21 148 -87 309 -178 437 -158 222 -435 384 -691 405 -36 3 -82 7
-101 9 -19 2 -75 -1 -125 -5z"/>
</g>
</svg>
