<?xml version="1.0" standalone="no"?>
<!DOCTYPE svg PUBLIC "-//W3C//DTD SVG 20010904//EN"
 "http://www.w3.org/TR/2001/REC-SVG-20010904/DTD/svg10.dtd">
<svg version="1.0" xmlns="http://www.w3.org/2000/svg"
 width="208" height="120" viewBox="0 0 900.000000 520.000000"
 preserveAspectRatio="xMidYMid meet">
<metadata>
Created by potrace 1.16, written by Peter Selinger 2001-2019
</metadata>
<g transform="translate(0.000000,520.000000) scale(0.100000,-0.100000)"
fill="#e54d26" stroke="">
<path d="M4271 4743 c-262 -29 -477 -91 -706 -203 -152 -74 -201 -104 -345
-207 -171 -123 -431 -400 -537 -573 -215 -350 -319 -683 -339 -1090 -11 -220
33 -519 111 -755 38 -113 148 -349 207 -443 147 -234 350 -453 565 -610 132
-96 180 -125 338 -202 505 -247 1078 -284 1620 -105 113 38 349 148 443 207
331 208 616 514 784 843 132 257 200 487 232 782 20 176 20 252 1 423 -34 304
-109 553 -244 805 -152 283 -371 535 -628 723 -132 96 -180 125 -338 202 -233
114 -446 174 -722 204 -169 19 -274 19 -442 -1z m199 -893 l0 -60 -50 0 -49 0
-3 -117 -3 -118 -60 0 -60 0 -3 118 -3 117 -49 0 -50 0 0 63 0 62 165 -3 165
-3 0 -59z m211 4 c17 -30 35 -52 39 -49 5 3 22 28 37 55 l28 50 68 0 67 0 -2
-177 -3 -178 -57 -3 -58 -3 -1 48 c-1 26 -1 65 0 86 1 20 -1 37 -3 37 -3 0
-21 -27 -41 -61 l-37 -61 -39 58 -38 58 -3 -80 -3 -79 -60 0 -60 0 -3 170 c-1
93 -1 174 1 180 3 6 31 9 70 7 l66 -4 32 -54z m-821 1 l0 -55 55 0 55 0 0 55
0 55 63 0 62 0 -3 -180 -3 -181 -57 3 -57 3 -3 58 -3 57 -54 0 -55 0 0 -60 0
-60 -60 0 -60 0 0 180 0 180 60 0 60 0 0 -55z m1240 -60 l0 -115 80 0 80 0 0
-65 0 -66 -142 3 -143 3 -3 178 -2 177 65 0 65 0 0 -115z m330 -412 c0 -10 -7
-90 -15 -178 -8 -88 -24 -266 -35 -395 -11 -129 -27 -309 -35 -400 -9 -91 -22
-232 -30 -315 -8 -82 -21 -242 -30 -355 -9 -113 -18 -214 -20 -225 -4 -17 -19
-25 -72 -38 -37 -9 -97 -25 -133 -35 -470 -134 -555 -155 -600 -144 -50 11
-135 35 -410 112 -102 29 -213 60 -248 68 -48 12 -63 21 -67 36 -2 12 -11 111
-20 221 -16 198 -30 354 -60 675 -8 91 -24 271 -35 400 -11 129 -27 307 -35
395 -8 88 -15 168 -15 178 0 16 51 17 930 17 879 0 930 -1 930 -17z"/>
<path d="M3920 2983 c0 -26 8 -113 45 -498 8 -82 15 -156 15 -162 0 -10 88
-13 405 -13 223 0 405 -1 405 -2 0 -17 -31 -302 -33 -304 -1 -1 -59 -18 -130
-38 l-127 -36 -130 36 -129 36 -6 47 c-4 25 -10 66 -14 91 l-6 45 -114 3 -114
3 6 -44 c4 -24 11 -107 18 -183 6 -77 12 -140 13 -141 0 -1 80 -22 176 -48
324 -86 292 -80 363 -63 89 23 401 109 405 113 3 3 8 50 37 400 8 105 18 218
21 253 l6 62 -421 0 c-330 0 -421 3 -422 13 0 6 -6 58 -13 115 -6 57 -10 105
-7 108 2 2 203 4 447 4 l442 0 7 88 c3 48 9 99 11 115 l6 27 -581 0 -581 0 0
-27z"/>
</g>
</svg>
